<svg xmlns="http://www.w3.org/2000/svg" xmlns:xlink="http://www.w3.org/1999/xlink" viewBox="0 0 65.36 100.4"><defs><style>.cls-1,.cls-2{fill:none;stroke-linecap:round;stroke-linejoin:round;stroke-width:1.84px;}.cls-1{stroke:url(#linear-gradient);}.cls-2{stroke:url(#linear-gradient-2);}.cls-3{fill:url(#linear-gradient-3);}.cls-4{fill:url(#linear-gradient-4);}</style><linearGradient id="linear-gradient" x1="7258.95" y1="49.64" x2="7323.87" y2="49.64" gradientTransform="matrix(-1, 0, 0, 1, 7324.3, 0)" gradientUnits="userSpaceOnUse"><stop offset="0.26" stop-color="#2a97ff"/><stop offset="0.56" stop-color="#2a7fff"/><stop offset="1" stop-color="#2a55ff"/></linearGradient><linearGradient id="linear-gradient-2" x1="0" y1="50.2" x2="64.92" y2="50.2" gradientTransform="matrix(1, 0, 0, 1, 0, 0)" xlink:href="#linear-gradient"/><linearGradient id="linear-gradient-3" x1="35.12" y1="55.44" x2="31.86" y2="102.18" gradientTransform="matrix(1, 0, 0, 1, 0, 0)" xlink:href="#linear-gradient"/><linearGradient id="linear-gradient-4" x1="28.09" y1="28.16" x2="37.27" y2="28.16" gradientTransform="matrix(1, 0, 0, 1, 0, 0)" xlink:href="#linear-gradient"/></defs><g id="Layer_2" data-name="Layer 2"><g id="OBJECTS"><path class="cls-1" d="M1.36.92H64.44C59.4,21,42.8,34.86,28.33,49.73S2.44,77.64,3.74,98.35"/><path class="cls-2" d="M64,.92H.92C6,21,22.56,34.86,37,49.73s24.32,29,23,49.75H3.46"/><path class="cls-3" d="M53.32,90.42a21.47,21.47,0,0,1-.13,2.28h-41a19.12,19.12,0,0,1-.13-2.28A20.63,20.63,0,0,1,28.16,70.28a2.87,2.87,0,0,0,2.21-2.82v-2.3a2.41,2.41,0,0,0-.87-1.87A4.81,4.81,0,0,1,28,61.08,5.14,5.14,0,0,1,29,56a5.08,5.08,0,0,1,7.6,0,5.14,5.14,0,0,1,.94,4.76,4.53,4.53,0,0,1-1.83,2.74,2.19,2.19,0,0,0-1,1.83v1.48a3.57,3.57,0,0,0,2.77,3.48A20.65,20.65,0,0,1,53.32,90.42Z"/><circle class="cls-4" cx="32.68" cy="28.16" r="4.59"/></g></g></svg>